# xmcd
# 
# Track frame offsets:
#     182
#     12895
#     24305
#     36135
#     45222
#     58480
#     69600
#     80727
#     95857
#     106840
#     116860
#     129320
#     137892
#     149135
#     162380
#     170827
#     181365
#     192135
# 
# Disc length: 2695
# 
# Revision: 3
# Processed by: cddbd v1.5.2PL0 Copyright (c) Steve Scherf et al.
# Submitted via: fre:ac v1.0.27
# 
DISCID=0b0a8512
DTITLE=Various Artist - Country Giants
DYEAR=1991
DGENRE=Country
TTITLE0=Johnny Cash - Folsom Prison Blues
TTITLE1=Kenny Rogers - Me And Bobby McGee
TTITLE2=Waylon Jennings - Don't Think Twice It's All Right
TTITLE3=Johnny Cash - Two Timing Woman
TTITLE4=Kenny Rogers - A Stranger In My Place
TTITLE5=Waylon Jennings - Sally Was A Good Old Girl
TTITLE6=Johnny Cash - Oh Lonesome Me
TTITLE7=Kenny Rogers - For The Good Time
TTITLE8=Waylon Jennings - Big Bayou
TTITLE9=Johnny Cash - Hey Porter
TTITLE10=Kenny Rogers - Ruben James
TTITLE11=Waylon Jennings - Love's Gonna Live Here Again
TTITLE12=Johnny Cash - Mean Eyed Cat
TTITLE13=Kenny Rogers - But You Know I Love You
TTITLE14=Waylon Jennings - Abilene
TTITLE15=Johnny Cash - You Win Again
TTITLE16=Kenny Rogers - She Even Kokw Me Up To Say Goodbye
TTITLE17=Waylon Jennings - White Lightnin'
EXTD=
EXTT0=
EXTT1=
EXTT2=
EXTT3=
EXTT4=
EXTT5=
EXTT6=
EXTT7=
EXTT8=
EXTT9=
EXTT10=
EXTT11=
EXTT12=
EXTT13=
EXTT14=
EXTT15=
EXTT16=
EXTT17=
PLAYORDER=
